<svg width="40" height="38" viewBox="0 0 40 38" fill="none" xmlns="http://www.w3.org/2000/svg">
<rect opacity="0.1" x="0.380371" width="39.4449" height="38" rx="12" fill="#50B5FF"/>
<path fill-rule="evenodd" clip-rule="evenodd" d="M20.1028 14C18.383 14 16.9888 12.6569 16.9888 11C16.9888 9.34315 18.383 8 20.1028 8C21.8227 8 23.2169 9.34315 23.2169 11C23.2169 12.6569 21.8227 14 20.1028 14ZM20.1028 12C20.6761 12 21.1408 11.5523 21.1408 11C21.1408 10.4477 20.6761 10 20.1028 10C19.5295 10 19.0648 10.4477 19.0648 11C19.0648 11.5523 19.5295 12 20.1028 12ZM19.0648 14H21.1408C22.8607 14 24.2549 15.3431 24.2549 17V18C24.2549 19.6569 22.8607 21 21.1408 21H19.0648C17.3449 21 15.9507 19.6569 15.9507 18V17C15.9507 15.3431 17.3449 14 19.0648 14ZM19.0648 16C18.4915 16 18.0268 16.4477 18.0268 17V18C18.0268 18.5523 18.4915 19 19.0648 19H21.1408C21.7141 19 22.1789 18.5523 22.1789 18V17C22.1789 16.4477 21.7141 16 21.1408 16H19.0648ZM27.369 23C25.6491 23 24.2549 21.6569 24.2549 20C24.2549 18.3431 25.6491 17 27.369 17C29.0888 17 30.483 18.3431 30.483 20C30.483 21.6569 29.0888 23 27.369 23ZM27.369 21C27.9423 21 28.407 20.5523 28.407 20C28.407 19.4477 27.9423 19 27.369 19C26.7957 19 26.331 19.4477 26.331 20C26.331 20.5523 26.7957 21 27.369 21ZM26.331 23H28.407C30.1269 23 31.5211 24.3431 31.5211 26V27C31.5211 28.6569 30.1269 30 28.407 30H26.331C24.6111 30 23.2169 28.6569 23.2169 27V26C23.2169 24.3431 24.6111 23 26.331 23ZM26.331 25C25.7577 25 25.2929 25.4477 25.2929 26V27C25.2929 27.5523 25.7577 28 26.331 28H28.407C28.9803 28 29.445 27.5523 29.445 27V26C29.445 25.4477 28.9803 25 28.407 25H26.331ZM12.8367 23C11.1168 23 9.72259 21.6569 9.72259 20C9.72259 18.3431 11.1168 17 12.8367 17C14.5565 17 15.9507 18.3431 15.9507 20C15.9507 21.6569 14.5565 23 12.8367 23ZM12.8367 21C13.4099 21 13.8747 20.5523 13.8747 20C13.8747 19.4477 13.4099 19 12.8367 19C12.2634 19 11.7986 19.4477 11.7986 20C11.7986 20.5523 12.2634 21 12.8367 21ZM11.7986 23H13.8747C15.5945 23 16.9888 24.3431 16.9888 26V27C16.9888 28.6569 15.5945 30 13.8747 30H11.7986C10.0788 30 8.68457 28.6569 8.68457 27V26C8.68457 24.3431 10.0788 23 11.7986 23ZM11.7986 25C11.2254 25 10.7606 25.4477 10.7606 26V27C10.7606 27.5523 11.2254 28 11.7986 28H13.8747C14.448 28 14.9127 27.5523 14.9127 27V26C14.9127 25.4477 14.448 25 13.8747 25H11.7986Z" fill="#50B5FF"/>
</svg>
