<svg width="40" height="38" viewBox="0 0 40 38" fill="none" xmlns="http://www.w3.org/2000/svg">
<rect opacity="0.1" x="0.380371" width="39.4449" height="38" rx="12" fill="#50B5FF"/>
<path fill-rule="evenodd" clip-rule="evenodd" d="M19.0649 11H13.8747C12.7282 11 11.7987 11.8954 11.7987 13V25C11.7987 26.1046 12.7282 27 13.8747 27H26.331C27.4776 27 28.4071 26.1046 28.4071 25V13C28.4071 12.0324 27.6938 11.2253 26.7462 11.04V19C26.7462 19.7203 25.9796 20.2044 25.294 19.9169L22.9268 18.9246L20.5109 19.9195C19.826 20.2015 19.0649 19.7175 19.0649 19V11ZM13.8747 9H26.331C28.6242 9 30.4831 10.7909 30.4831 13V25C30.4831 27.2091 28.6242 29 26.331 29H13.8747C11.5816 29 9.72266 27.2091 9.72266 25V13C9.72266 10.7909 11.5816 9 13.8747 9ZM19.1687 22.5C19.7419 22.5 20.2067 22.9477 20.2067 23.5C20.2067 24.0523 19.7419 24.5 19.1687 24.5H14.4976C13.9243 24.5 13.4595 24.0523 13.4595 23.5C13.4595 22.9477 13.9243 22.5 14.4976 22.5H19.1687ZM16.366 18.9C16.9393 18.9 17.404 19.3477 17.404 19.9C17.404 20.4523 16.9393 20.9 16.366 20.9H14.4976C13.9243 20.9 13.4595 20.4523 13.4595 19.9C13.4595 19.3477 13.9243 18.9 14.4976 18.9H16.366ZM21.1409 11V17.485L22.5224 16.916C22.7852 16.8078 23.0826 16.8088 23.3446 16.9186L24.6702 17.4743V11H21.1409Z" fill="#50B5FF"/>
</svg>
