<svg width="40" height="38" viewBox="0 0 40 38" fill="none" xmlns="http://www.w3.org/2000/svg">
<rect opacity="0.1" x="0.380371" width="39.4449" height="38" rx="12" fill="#50B5FF"/>
<path fill-rule="evenodd" clip-rule="evenodd" d="M13.8747 8H23.7688C24.3849 8 24.9692 8.26365 25.3637 8.71963L30.0019 14.0817C30.3128 14.4411 30.4831 14.8942 30.4831 15.3621V26C30.4831 28.2091 28.6242 30 26.331 30H13.8747C11.5816 30 9.72266 28.2091 9.72266 26V12C9.72266 9.79086 11.5816 8 13.8747 8ZM28.4071 26V16H25.293C24.1464 16 23.2169 15.1046 23.2169 14V10H13.8747C12.7282 10 11.7987 10.8954 11.7987 12V26C11.7987 27.1046 12.7282 28 13.8747 28H26.331C27.4776 28 28.4071 27.1046 28.4071 26ZM27.2289 14L25.293 11.762V14H27.2289ZM15.9508 21C15.3775 21 14.9128 20.5523 14.9128 20C14.9128 19.4477 15.3775 19 15.9508 19H24.255C24.8283 19 25.293 19.4477 25.293 20C25.293 20.5523 24.8283 21 24.255 21H15.9508ZM15.9508 25C15.3775 25 14.9128 24.5523 14.9128 24C14.9128 23.4477 15.3775 23 15.9508 23H22.1789C22.7522 23 23.217 23.4477 23.217 24C23.217 24.5523 22.7522 25 22.1789 25H15.9508ZM15.9508 17C15.3775 17 14.9128 16.5523 14.9128 16C14.9128 15.4477 15.3775 15 15.9508 15H19.0649C19.6381 15 20.1029 15.4477 20.1029 16C20.1029 16.5523 19.6381 17 19.0649 17H15.9508Z" fill="#50B5FF"/>
</svg>
