<svg width="20" height="20" viewBox="0 0 20 20" fill="none" xmlns="http://www.w3.org/2000/svg">
<mask id="mask0" mask-type="alpha" maskUnits="userSpaceOnUse" x="0" y="0" width="20" height="20">
<path fill-rule="evenodd" clip-rule="evenodd" d="M10 20C15.5228 20 20 15.5228 20 10C20 4.47715 15.5228 0 10 0C4.47715 0 0 4.47715 0 10C0 15.5228 4.47715 20 10 20Z" fill="white"/>
<path d="M19.75 10C19.75 15.3848 15.3848 19.75 10 19.75C4.61522 19.75 0.25 15.3848 0.25 10C0.25 4.61522 4.61522 0.25 10 0.25C15.3848 0.25 19.75 4.61522 19.75 10Z" stroke="white" stroke-width="0.5"/>
</mask>
<g mask="url(#mask0)">
<path d="M19.75 10C19.75 15.3848 15.3848 19.75 10 19.75C4.61522 19.75 0.25 15.3848 0.25 10C0.25 4.61522 4.61522 0.25 10 0.25C15.3848 0.25 19.75 4.61522 19.75 10Z" fill="white" stroke="#DADADA" stroke-width="0.5"/>
<path d="M13.9377 6.06869C13.8209 5.95166 13.6624 5.88589 13.4971 5.88589C13.3317 5.88589 13.1732 5.95166 13.0564 6.06869L10.0002 9.11869L6.94395 6.06244C6.82718 5.94541 6.66864 5.87964 6.50332 5.87964C6.338 5.87964 6.17946 5.94541 6.0627 6.06244C5.81895 6.30619 5.81895 6.69994 6.0627 6.94369L9.11895 9.99994L6.0627 13.0562C5.81895 13.2999 5.81895 13.6937 6.0627 13.9374C6.30645 14.1812 6.7002 14.1812 6.94395 13.9374L10.0002 10.8812L13.0564 13.9374C13.3002 14.1812 13.6939 14.1812 13.9377 13.9374C14.1814 13.6937 14.1814 13.2999 13.9377 13.0562L10.8814 9.99994L13.9377 6.94369C14.1752 6.70619 14.1752 6.30619 13.9377 6.06869Z" fill="black" fill-opacity="0.54"/>
</g>
</svg>
