<svg width="30" height="30" viewBox="0 0 30 30" fill="none" xmlns="http://www.w3.org/2000/svg">
<path d="M15 17.5C17.075 17.5 18.7375 15.825 18.7375 13.75L18.75 6.25C18.75 4.175 17.075 2.5 15 2.5C12.925 2.5 11.25 4.175 11.25 6.25V13.75C11.25 15.825 12.925 17.5 15 17.5ZM21.625 13.75C21.625 17.5 18.45 20.125 15 20.125C11.55 20.125 8.375 17.5 8.375 13.75H6.25C6.25 18.0125 9.65 21.5375 13.75 22.15V26.25H16.25V22.15C20.35 21.55 23.75 18.025 23.75 13.75H21.625Z" fill="#24356F"/>
<path d="M15 17.5C17.075 17.5 18.7375 15.825 18.7375 13.75L18.75 6.25C18.75 4.175 17.075 2.5 15 2.5C12.925 2.5 11.25 4.175 11.25 6.25V13.75C11.25 15.825 12.925 17.5 15 17.5Z" fill="#D41E43"/>
</svg>
